<svg xmlns="http://www.w3.org/2000/svg" xmlns:xlink="http://www.w3.org/1999/xlink" width="500" zoomAndPan="magnify" viewBox="0 0 375 1124.99995" height="1500" preserveAspectRatio="xMidYMid meet" version="1.0"><defs><g/><clipPath id="15a8b0a951"><path d="M 37.5 0 L 324.75 0 L 324.75 1125 L 37.5 1125 Z M 37.5 0 " clip-rule="nonzero"/></clipPath></defs><path fill="#cf2b2c" d="M 54.757812 189.539062 L 306.433594 189.539062 L 306.433594 753.886719 L 54.757812 753.886719 Z M 54.757812 189.539062 " fill-opacity="1" fill-rule="nonzero"/><path fill="#cf2b2c" d="M 77.398438 240.300781 L 77.398438 703.125 L 283.792969 703.125 L 283.792969 240.300781 Z M 261.148438 682.964844 L 100.0625 682.964844 L 100.0625 260.460938 L 261.171875 260.460938 L 261.171875 682.964844 Z M 261.148438 682.964844 " fill-opacity="1" fill-rule="nonzero"/><g clip-path="url(#15a8b0a951)"><path fill="#d8a454" d="M 52.730469 198.585938 L 309.429688 198.585938 C 317.652344 198.585938 324.320312 191.925781 324.320312 183.710938 C 324.320312 175.5 317.652344 168.839844 309.429688 168.839844 L 307.582031 168.839844 L 182.972656 0.921875 C 182.542969 0.335938 181.867188 0 181.148438 0 C 180.425781 0 179.75 0.335938 179.324219 0.921875 L 54.734375 168.839844 L 52.730469 168.839844 C 44.507812 168.839844 37.839844 175.5 37.839844 183.710938 C 37.839844 191.925781 44.507812 198.585938 52.730469 198.585938 Z M 181.148438 6.050781 L 301.925781 168.839844 L 60.367188 168.839844 Z M 309.429688 739.011719 L 52.730469 739.011719 C 44.507812 739.011719 37.839844 745.671875 37.839844 753.886719 C 37.839844 762.097656 44.507812 768.757812 52.730469 768.757812 L 60.097656 768.757812 L 179.480469 897.140625 C 179.910156 897.613281 180.515625 897.863281 181.148438 897.863281 C 181.777344 897.863281 182.386719 897.59375 182.816406 897.140625 L 302.199219 768.757812 L 309.429688 768.757812 C 317.652344 768.757812 324.320312 762.097656 324.320312 753.886719 C 324.320312 745.671875 317.652344 739.011719 309.429688 739.011719 Z M 181.148438 892.28125 L 66.269531 768.757812 L 296.023438 768.757812 Z M 142.710938 1112.21875 C 141.449219 1112.21875 140.4375 1111.207031 140.4375 1109.949219 L 140.4375 966.261719 C 140.4375 965.003906 141.449219 963.988281 142.710938 963.988281 C 143.972656 963.988281 144.988281 965.003906 144.988281 966.261719 L 144.988281 1109.949219 C 144.988281 1111.207031 143.972656 1112.21875 142.710938 1112.21875 Z M 156.410156 1119.039062 C 155.148438 1119.039062 154.136719 1118.023438 154.136719 1116.765625 L 154.136719 970.738281 C 154.136719 969.480469 155.148438 968.46875 156.410156 968.46875 C 157.671875 968.46875 158.6875 969.480469 158.6875 970.738281 L 158.6875 1116.765625 C 158.664062 1118.023438 157.648438 1119.039062 156.410156 1119.039062 Z M 170.875 1125 C 169.613281 1125 168.597656 1123.988281 168.597656 1122.726562 L 168.597656 970.738281 C 168.597656 969.480469 169.613281 968.46875 170.875 968.46875 C 172.136719 968.46875 173.148438 969.480469 173.148438 970.738281 L 173.148438 1122.726562 C 173.128906 1123.988281 172.113281 1125 170.875 1125 Z M 218.5 1112.21875 C 217.238281 1112.21875 216.226562 1111.207031 216.226562 1109.949219 L 216.226562 966.261719 C 216.226562 965.003906 217.238281 963.988281 218.5 963.988281 C 219.761719 963.988281 220.777344 965.003906 220.777344 966.261719 L 220.777344 1109.949219 C 220.753906 1111.207031 219.742188 1112.21875 218.5 1112.21875 Z M 204.804688 1119.039062 C 203.542969 1119.039062 202.527344 1118.023438 202.527344 1116.765625 L 202.527344 970.738281 C 202.527344 969.480469 203.542969 968.46875 204.804688 968.46875 C 206.066406 968.46875 207.078125 969.480469 207.078125 970.738281 L 207.078125 1116.765625 C 207.078125 1118.023438 206.066406 1119.039062 204.804688 1119.039062 Z M 190.339844 1125 C 189.078125 1125 188.0625 1123.988281 188.0625 1122.726562 L 188.0625 970.738281 C 188.0625 969.480469 189.078125 968.46875 190.339844 968.46875 C 191.601562 968.46875 192.613281 969.480469 192.613281 970.738281 L 192.613281 1122.726562 C 192.613281 1123.988281 191.601562 1125 190.339844 1125 Z M 190.339844 1125 " fill-opacity="1" fill-rule="nonzero"/></g><path fill="#cf2b2c" d="M 181.078125 920.316406 C 149.289062 920.316406 123.539062 946.058594 123.539062 977.78125 C 123.539062 978.324219 123.605469 978.839844 123.628906 979.359375 L 238.574219 979.359375 C 238.597656 978.816406 238.664062 978.300781 238.664062 977.78125 C 238.621094 946.058594 212.867188 920.316406 181.078125 920.316406 Z M 181.078125 920.316406 " fill-opacity="1" fill-rule="nonzero"/><path fill="#eaab21" d="M 204.734375 907.738281 C 204.734375 920.789062 194.148438 931.386719 181.058594 931.386719 C 167.992188 931.386719 157.378906 920.8125 157.378906 907.738281 C 157.378906 894.667969 167.96875 884.09375 181.058594 884.09375 C 194.148438 884.09375 204.734375 894.667969 204.734375 907.738281 Z M 204.734375 907.738281 " fill-opacity="1" fill-rule="nonzero"/><g fill="#ffffff" fill-opacity="1"><g transform="translate(91.015492, 294.548401)"><g><path d="M 24.453125 8.515625 C 19.691406 8.515625 15.710938 7.367188 12.515625 5.078125 C 9.328125 2.796875 6.960938 -0.164062 5.421875 -3.8125 C 3.890625 -7.46875 3.125 -11.414062 3.125 -15.65625 C 3.125 -24.070312 5.195312 -32.535156 9.34375 -41.046875 C 13.488281 -49.554688 18.789062 -56.566406 25.25 -62.078125 C 31.707031 -67.585938 38.195312 -70.34375 44.71875 -70.34375 C 47.78125 -70.34375 50.238281 -69.625 52.09375 -68.1875 C 53.957031 -66.757812 54.890625 -64.515625 54.890625 -61.453125 C 54.890625 -58.835938 54.285156 -55.832031 53.078125 -52.4375 C 51.867188 -49.050781 50.332031 -46.164062 48.46875 -43.78125 C 46.613281 -41.40625 44.742188 -40.21875 42.859375 -40.21875 C 41.222656 -40.21875 39.882812 -41.226562 38.84375 -43.25 C 41.320312 -45.988281 43.71875 -49.25 46.03125 -53.03125 C 48.351562 -56.8125 49.515625 -59.878906 49.515625 -62.234375 C 49.515625 -64.773438 48.046875 -66.046875 45.109375 -66.046875 C 40.535156 -66.046875 35.6875 -63.269531 30.5625 -57.71875 C 25.445312 -52.175781 21.175781 -45.359375 17.75 -37.265625 C 14.332031 -29.179688 12.625 -21.6875 12.625 -14.78125 C 12.625 -9.5625 13.796875 -5.15625 16.140625 -1.5625 C 18.492188 2.019531 22.050781 3.8125 26.8125 3.8125 C 30.195312 3.8125 33.648438 2.847656 37.171875 0.921875 C 40.703125 -0.992188 43.929688 -3.550781 46.859375 -6.75 C 49.796875 -9.945312 52.144531 -13.40625 53.90625 -17.125 L 56.453125 -15.453125 C 52.734375 -8.410156 48.117188 -2.65625 42.609375 1.8125 C 37.097656 6.28125 31.046875 8.515625 24.453125 8.515625 Z M 24.453125 8.515625 "/></g></g></g><g fill="#ffffff" fill-opacity="1"><g transform="translate(146.778367, 294.548401)"><g><path d="M 4.5 3.71875 C 3.132812 3.71875 2.125 2.671875 1.46875 0.578125 C 0.8125 -1.503906 0.484375 -4.144531 0.484375 -7.34375 C 0.484375 -13.207031 2.328125 -21.175781 6.015625 -31.25 C 9.703125 -41.332031 13.925781 -50.285156 18.6875 -58.109375 C 23.445312 -65.941406 27.328125 -69.859375 30.328125 -69.859375 C 31.628906 -69.859375 32.65625 -69.140625 33.40625 -67.703125 C 34.15625 -66.273438 34.53125 -64.675781 34.53125 -62.90625 C 34.53125 -59.90625 33.4375 -55.894531 31.25 -50.875 C 29.070312 -45.851562 26.203125 -41.007812 22.640625 -36.34375 C 19.085938 -31.6875 15.421875 -28.25 11.640625 -26.03125 C 9.421875 -20.15625 8.3125 -14.609375 8.3125 -9.390625 L 8.421875 -7.34375 C 8.546875 -7.53125 8.835938 -8.242188 9.296875 -9.484375 C 10.597656 -12.878906 11.96875 -15.945312 13.40625 -18.6875 C 14.84375 -21.425781 16.816406 -23.984375 19.328125 -26.359375 C 21.835938 -28.742188 24.753906 -29.9375 28.078125 -29.9375 C 31.078125 -29.9375 33.257812 -28.972656 34.625 -27.046875 C 36 -25.128906 36.6875 -22.863281 36.6875 -20.25 C 36.6875 -18.75 36.488281 -17.347656 36.09375 -16.046875 C 35.707031 -14.742188 35.125 -13.082031 34.34375 -11.0625 C 34.207031 -10.800781 33.960938 -10.195312 33.609375 -9.25 C 33.253906 -8.300781 32.992188 -7.453125 32.828125 -6.703125 C 32.660156 -5.953125 32.578125 -5.285156 32.578125 -4.703125 C 32.578125 -2.609375 33.457031 -1.5625 35.21875 -1.5625 C 36.65625 -1.5625 38.351562 -2.28125 40.3125 -3.71875 C 42.269531 -5.15625 44.191406 -7.078125 46.078125 -9.484375 C 47.972656 -11.898438 49.601562 -14.507812 50.96875 -17.3125 L 52.546875 -15.65625 C 50.128906 -10.300781 47.207031 -5.960938 43.78125 -2.640625 C 40.351562 0.679688 36.6875 2.34375 32.78125 2.34375 C 30.363281 2.34375 28.484375 1.707031 27.140625 0.4375 C 25.804688 -0.832031 25.140625 -2.476562 25.140625 -4.5 C 25.140625 -5.800781 25.597656 -8.148438 26.515625 -11.546875 C 27.492188 -14.742188 27.984375 -17.125 27.984375 -18.6875 C 27.984375 -21.425781 26.804688 -22.796875 24.453125 -22.796875 C 22.109375 -22.796875 20.132812 -21.570312 18.53125 -19.125 C 16.9375 -16.675781 15.128906 -13.070312 13.109375 -8.3125 C 11.484375 -4.269531 10.050781 -1.253906 8.8125 0.734375 C 7.570312 2.722656 6.132812 3.71875 4.5 3.71875 Z M 13.703125 -32.28125 C 16.367188 -34.695312 18.941406 -37.828125 21.421875 -41.671875 C 23.898438 -45.523438 25.921875 -49.257812 27.484375 -52.875 C 29.054688 -56.5 29.84375 -59.09375 29.84375 -60.65625 C 29.0625 -60.332031 27.660156 -58.75 25.640625 -55.90625 C 23.617188 -53.070312 21.5 -49.519531 19.28125 -45.25 C 17.0625 -40.976562 15.203125 -36.65625 13.703125 -32.28125 Z M 13.703125 -32.28125 "/></g></g></g><g fill="#ffffff" fill-opacity="1"><g transform="translate(195.1062, 294.548401)"><g><path d="M 7.4375 2.9375 C 5.28125 2.9375 3.484375 1.925781 2.046875 -0.09375 C 0.617188 -2.113281 -0.09375 -4.492188 -0.09375 -7.234375 C -0.09375 -9.585938 0.425781 -12.523438 1.46875 -16.046875 C 2.507812 -19.566406 3.726562 -22.628906 5.125 -25.234375 C 6.53125 -27.847656 7.757812 -29.15625 8.8125 -29.15625 C 9.257812 -29.15625 9.957031 -28.910156 10.90625 -28.421875 C 11.851562 -27.929688 12.6875 -27.328125 13.40625 -26.609375 C 12.03125 -24.585938 10.609375 -21.6875 9.140625 -17.90625 C 7.679688 -14.125 6.953125 -10.863281 6.953125 -8.125 C 6.953125 -6.882812 7.128906 -5.59375 7.484375 -4.25 C 7.835938 -2.914062 8.632812 -2.25 9.875 -2.25 C 12.289062 -2.25 15.175781 -4.9375 18.53125 -10.3125 C 21.894531 -15.695312 24.785156 -21.164062 27.203125 -26.71875 C 31.117188 -26.0625 33.078125 -24.953125 33.078125 -23.390625 C 33.078125 -23.253906 32.679688 -22.304688 31.890625 -20.546875 C 30.523438 -17.347656 29.351562 -14.378906 28.375 -11.640625 C 27.394531 -8.898438 26.90625 -6.519531 26.90625 -4.5 C 26.90625 -2.21875 27.785156 -1.078125 29.546875 -1.078125 C 30.921875 -1.078125 32.566406 -1.710938 34.484375 -2.984375 C 36.410156 -4.253906 38.382812 -6.078125 40.40625 -8.453125 C 42.425781 -10.835938 44.1875 -13.597656 45.6875 -16.734375 L 47.15625 -15.5625 C 45.726562 -12.039062 43.867188 -8.875 41.578125 -6.0625 C 39.296875 -3.257812 36.832031 -1.0625 34.1875 0.53125 C 31.550781 2.132812 29.023438 2.9375 26.609375 2.9375 C 23.742188 2.9375 21.898438 1.941406 21.078125 -0.046875 C 20.265625 -2.035156 19.859375 -4.691406 19.859375 -8.015625 C 17.640625 -4.628906 15.550781 -1.957031 13.59375 0 C 11.644531 1.957031 9.59375 2.9375 7.4375 2.9375 Z M 23.96875 -36.203125 C 23.25 -36.523438 22.675781 -37.03125 22.25 -37.71875 C 21.832031 -38.40625 21.625 -38.972656 21.625 -39.421875 C 21.625 -40.210938 22.207031 -41.535156 23.375 -43.390625 C 24.550781 -45.253906 25.921875 -46.9375 27.484375 -48.4375 C 29.054688 -49.9375 30.460938 -50.6875 31.703125 -50.6875 C 33.390625 -50.6875 34.363281 -49.539062 34.625 -47.25 C 34.625 -47.25 34.101562 -46.726562 33.0625 -45.6875 C 31.238281 -43.988281 29.539062 -42.34375 27.96875 -40.75 C 26.40625 -39.15625 25.070312 -37.640625 23.96875 -36.203125 Z M 23.96875 -36.203125 "/></g></g></g><g fill="#ffffff" fill-opacity="1"><g transform="translate(238.249062, 294.548401)"><g><path d="M 11.0625 5.484375 C 7.53125 5.484375 4.703125 4.390625 2.578125 2.203125 C 0.460938 0.015625 -0.59375 -3.195312 -0.59375 -7.4375 C -0.59375 -11.613281 0.460938 -15.691406 2.578125 -19.671875 C 4.703125 -23.648438 7.460938 -26.878906 10.859375 -29.359375 C 14.253906 -31.835938 17.679688 -33.078125 21.140625 -33.078125 C 23.742188 -33.078125 25.679688 -32.421875 26.953125 -31.109375 C 28.222656 -29.804688 28.859375 -28.175781 28.859375 -26.21875 C 28.859375 -24.257812 28.382812 -22.445312 27.4375 -20.78125 C 26.5 -19.125 25.34375 -18.296875 23.96875 -18.296875 C 22.726562 -18.296875 21.71875 -18.914062 20.9375 -20.15625 C 21.71875 -20.675781 22.429688 -21.585938 23.078125 -22.890625 C 23.734375 -24.203125 24.0625 -25.738281 24.0625 -27.5 C 24.0625 -28.601562 23.441406 -29.15625 22.203125 -29.15625 C 20.117188 -29.15625 17.867188 -27.914062 15.453125 -25.4375 C 13.046875 -22.957031 11.023438 -19.957031 9.390625 -16.4375 C 7.765625 -12.914062 6.953125 -9.71875 6.953125 -6.84375 C 6.953125 -4.757812 7.472656 -3.015625 8.515625 -1.609375 C 9.554688 -0.210938 11.347656 0.484375 13.890625 0.484375 C 16.367188 0.484375 18.960938 -0.226562 21.671875 -1.65625 C 24.378906 -3.09375 26.90625 -5.128906 29.25 -7.765625 C 31.601562 -10.410156 33.460938 -13.460938 34.828125 -16.921875 L 36.796875 -15.171875 C 35.222656 -11.253906 33.050781 -7.726562 30.28125 -4.59375 C 27.507812 -1.46875 24.425781 0.988281 21.03125 2.78125 C 17.644531 4.582031 14.320312 5.484375 11.0625 5.484375 Z M 11.0625 5.484375 "/></g></g></g><g fill="#ffffff" fill-opacity="1"><g transform="translate(84.22226, 430.902014)"><g><path d="M 51.171875 3.03125 C 48.753906 3.03125 46.894531 2.3125 45.59375 0.875 C 44.289062 -0.550781 43.640625 -2.375 43.640625 -4.59375 C 43.640625 -5.644531 43.785156 -6.804688 44.078125 -8.078125 C 44.367188 -9.347656 44.710938 -10.535156 45.109375 -11.640625 C 45.953125 -14.316406 46.375 -16.273438 46.375 -17.515625 C 46.375 -19.472656 45.625 -20.453125 44.125 -20.453125 C 42.6875 -20.453125 41.019531 -19.40625 39.125 -17.3125 C 37.238281 -15.226562 34.695312 -11.804688 31.5 -7.046875 C 30.71875 -5.867188 29.546875 -3.878906 27.984375 -1.078125 L 26.125 2.25 C 24.945312 2.25 23.671875 2.019531 22.296875 1.5625 C 20.929688 1.101562 20.25 0.484375 20.25 -0.296875 C 20.25 -0.941406 20.9375 -3.03125 22.3125 -6.5625 C 23.613281 -9.945312 24.671875 -12.910156 25.484375 -15.453125 C 26.304688 -18.003906 26.71875 -20.125 26.71875 -21.8125 C 26.71875 -23.769531 26.03125 -24.75 24.65625 -24.75 C 22.894531 -24.75 20.609375 -23.363281 17.796875 -20.59375 C 14.992188 -17.820312 12.222656 -14.300781 9.484375 -10.03125 C 6.742188 -5.757812 4.625 -1.535156 3.125 2.640625 C 1.957031 2.640625 0.578125 2.3125 -1.015625 1.65625 C -2.617188 1.007812 -3.421875 0.457031 -3.421875 0 L 2.84375 -25.046875 C 3.03125 -25.765625 3.726562 -26.398438 4.9375 -26.953125 C 6.144531 -27.503906 7.238281 -27.78125 8.21875 -27.78125 C 9.195312 -27.78125 9.992188 -27.488281 10.609375 -26.90625 C 11.234375 -26.320312 11.546875 -25.539062 11.546875 -24.5625 C 11.546875 -23.519531 11.085938 -21.171875 10.171875 -17.515625 C 13.304688 -21.816406 16.535156 -25.382812 19.859375 -28.21875 C 23.191406 -31.0625 26.320312 -32.484375 29.25 -32.484375 C 31.46875 -32.484375 33.050781 -31.695312 34 -30.125 C 34.945312 -28.5625 35.421875 -26.609375 35.421875 -24.265625 C 35.421875 -23.023438 35.289062 -21.863281 35.03125 -20.78125 C 34.769531 -19.707031 34.34375 -18.257812 33.75 -16.4375 C 38.320312 -23.15625 43.050781 -26.515625 47.9375 -26.515625 C 50.289062 -26.515625 52.003906 -25.8125 53.078125 -24.40625 C 54.148438 -23.007812 54.6875 -21.265625 54.6875 -19.171875 C 54.6875 -17.085938 54.035156 -14.15625 52.734375 -10.375 C 52.671875 -10.113281 52.425781 -9.265625 52 -7.828125 C 51.582031 -6.390625 51.375 -5.21875 51.375 -4.3125 C 51.375 -2.539062 52.1875 -1.65625 53.8125 -1.65625 C 56.164062 -1.65625 58.46875 -3.15625 60.71875 -6.15625 C 62.96875 -9.164062 65.066406 -12.753906 67.015625 -16.921875 L 68.6875 -14.875 C 66.789062 -9.976562 64.359375 -5.769531 61.390625 -2.25 C 58.421875 1.269531 55.015625 3.03125 51.171875 3.03125 Z M 51.171875 3.03125 "/></g></g></g><g fill="#ffffff" fill-opacity="1"><g transform="translate(148.789804, 430.902014)"><g><path d="M 47.15625 -15.5625 C 45.726562 -12.039062 43.867188 -8.875 41.578125 -6.0625 C 39.296875 -3.257812 36.832031 -1.0625 34.1875 0.53125 C 31.550781 2.132812 29.023438 2.9375 26.609375 2.9375 C 23.742188 2.9375 21.898438 1.941406 21.078125 -0.046875 C 20.265625 -2.035156 19.859375 -4.691406 19.859375 -8.015625 C 17.640625 -4.628906 15.550781 -1.957031 13.59375 0 C 11.644531 1.957031 9.59375 2.9375 7.4375 2.9375 C 5.28125 2.9375 3.484375 1.925781 2.046875 -0.09375 C 0.617188 -2.113281 -0.09375 -4.492188 -0.09375 -7.234375 C -0.09375 -9.585938 0.425781 -12.523438 1.46875 -16.046875 C 2.507812 -19.566406 3.726562 -22.628906 5.125 -25.234375 C 6.53125 -27.847656 7.757812 -29.15625 8.8125 -29.15625 C 9.257812 -29.15625 9.957031 -28.910156 10.90625 -28.421875 C 11.851562 -27.929688 12.6875 -27.328125 13.40625 -26.609375 C 12.03125 -24.585938 10.609375 -21.6875 9.140625 -17.90625 C 7.679688 -14.125 6.953125 -10.863281 6.953125 -8.125 C 6.953125 -6.882812 7.128906 -5.59375 7.484375 -4.25 C 7.835938 -2.914062 8.632812 -2.25 9.875 -2.25 C 12.289062 -2.25 15.175781 -4.9375 18.53125 -10.3125 C 21.894531 -15.695312 24.785156 -21.164062 27.203125 -26.71875 C 28.179688 -26.71875 29.007812 -26.617188 29.6875 -26.421875 C 30.375 -26.222656 31.144531 -25.925781 32 -25.53125 C 33.425781 -24.882812 34.664062 -24.5625 35.71875 -24.5625 C 36.5625 -24.5625 37.242188 -24.785156 37.765625 -25.234375 C 38.285156 -25.691406 38.546875 -26.28125 38.546875 -27 C 38.546875 -28.894531 37.304688 -30.625 34.828125 -32.1875 C 36.003906 -33.75 37.539062 -34.53125 39.4375 -34.53125 C 40.9375 -34.53125 42.171875 -33.910156 43.140625 -32.671875 C 44.117188 -31.441406 44.609375 -29.878906 44.609375 -27.984375 C 44.609375 -25.960938 43.972656 -24.25 42.703125 -22.84375 C 41.429688 -21.445312 39.785156 -20.75 37.765625 -20.75 C 36.203125 -20.75 34.539062 -21.332031 32.78125 -22.5 L 31.890625 -20.453125 C 30.390625 -16.992188 29.179688 -13.957031 28.265625 -11.34375 C 27.359375 -8.738281 26.90625 -6.457031 26.90625 -4.5 C 26.90625 -2.21875 27.785156 -1.078125 29.546875 -1.078125 C 30.921875 -1.078125 32.566406 -1.710938 34.484375 -2.984375 C 36.410156 -4.253906 38.382812 -6.078125 40.40625 -8.453125 C 42.425781 -10.835938 44.1875 -13.597656 45.6875 -16.734375 Z M 23.28125 -36.109375 C 20.09375 -39.890625 16.28125 -43.472656 11.84375 -46.859375 C 11.90625 -48.097656 12.242188 -49.046875 12.859375 -49.703125 C 13.484375 -50.359375 14.1875 -50.6875 14.96875 -50.6875 C 16.207031 -50.6875 17.675781 -49.96875 19.375 -48.53125 C 21.070312 -47.09375 22.554688 -45.457031 23.828125 -43.625 C 25.097656 -41.800781 25.734375 -40.46875 25.734375 -39.625 C 25.734375 -39.039062 25.503906 -38.390625 25.046875 -37.671875 C 24.585938 -36.953125 24 -36.429688 23.28125 -36.109375 Z M 23.28125 -36.109375 "/></g></g></g><g fill="#ffffff" fill-opacity="1"><g transform="translate(191.932667, 430.902014)"><g><path d="M 32.96875 1.953125 C 30.488281 1.953125 28.5625 1.332031 27.1875 0.09375 C 25.820312 -1.144531 25.140625 -2.773438 25.140625 -4.796875 C 25.140625 -5.640625 25.285156 -6.613281 25.578125 -7.71875 C 25.878906 -8.832031 26.191406 -9.945312 26.515625 -11.0625 C 27.429688 -14.0625 27.890625 -16.273438 27.890625 -17.703125 C 27.890625 -19.015625 27.5625 -19.976562 26.90625 -20.59375 C 26.25 -21.21875 25.429688 -21.53125 24.453125 -21.53125 C 21.003906 -21.53125 17.515625 -19.359375 13.984375 -15.015625 C 10.460938 -10.679688 6.679688 -5.1875 2.640625 1.46875 C -0.160156 1.46875 -2.28125 0.519531 -3.71875 -1.375 L -2.84375 -3.8125 C 1.007812 -13.144531 2.9375 -20.0625 2.9375 -24.5625 C 3.457031 -25.144531 4.207031 -25.679688 5.1875 -26.171875 C 6.164062 -26.660156 7.109375 -26.90625 8.015625 -26.90625 C 9.128906 -26.90625 9.976562 -26.644531 10.5625 -26.125 C 11.15625 -25.601562 11.453125 -24.882812 11.453125 -23.96875 C 11.453125 -22.207031 10.894531 -19.304688 9.78125 -15.265625 C 12.71875 -19.179688 15.765625 -22.378906 18.921875 -24.859375 C 22.085938 -27.335938 25.207031 -28.578125 28.28125 -28.578125 C 30.882812 -28.578125 32.90625 -27.675781 34.34375 -25.875 C 35.78125 -24.082031 36.5 -21.945312 36.5 -19.46875 C 36.5 -18.03125 36.316406 -16.660156 35.953125 -15.359375 C 35.597656 -14.054688 35.0625 -12.585938 34.34375 -10.953125 C 33.238281 -8.210938 32.6875 -6.160156 32.6875 -4.796875 C 32.6875 -3.816406 32.910156 -3.097656 33.359375 -2.640625 C 33.816406 -2.179688 34.375 -1.953125 35.03125 -1.953125 C 37.175781 -1.953125 39.503906 -3.4375 42.015625 -6.40625 C 44.535156 -9.375 46.804688 -12.878906 48.828125 -16.921875 L 50.484375 -15.5625 C 48.140625 -10.144531 45.546875 -5.867188 42.703125 -2.734375 C 39.867188 0.390625 36.625 1.953125 32.96875 1.953125 Z M 32.96875 1.953125 "/></g></g></g><g fill="#ffffff" fill-opacity="1"><g transform="translate(238.206068, 430.902014)"><g><path d="M 4.890625 27.390625 C 3.066406 27.390625 1.5 26.851562 0.1875 25.78125 C -1.113281 24.707031 -1.765625 23.160156 -1.765625 21.140625 C -1.765625 18.585938 -0.800781 16.269531 1.125 14.1875 C 3.050781 12.101562 5.285156 10.328125 7.828125 8.859375 C 10.367188 7.390625 13.726562 5.675781 17.90625 3.71875 C 19.53125 -0.394531 20.832031 -4.472656 21.8125 -8.515625 C 16.53125 -1.859375 11.578125 1.46875 6.953125 1.46875 C 4.335938 1.46875 2.265625 0.554688 0.734375 -1.265625 C -0.796875 -3.097656 -1.5625 -5.515625 -1.5625 -8.515625 C -1.5625 -12.878906 -0.128906 -17.019531 2.734375 -20.9375 C 5.609375 -24.851562 9.164062 -28 13.40625 -30.375 C 17.644531 -32.757812 21.6875 -33.953125 25.53125 -33.953125 C 27.5625 -33.953125 29.113281 -33.59375 30.1875 -32.875 C 31.257812 -32.15625 31.796875 -31.273438 31.796875 -30.234375 C 31.796875 -29.578125 31.597656 -28.988281 31.203125 -28.46875 C 30.816406 -27.945312 30.492188 -27.65625 30.234375 -27.59375 C 29.578125 -28.25 28.921875 -28.707031 28.265625 -28.96875 C 27.617188 -29.226562 26.804688 -29.359375 25.828125 -29.359375 C 22.628906 -29.359375 19.53125 -28.164062 16.53125 -25.78125 C 13.53125 -23.394531 11.097656 -20.519531 9.234375 -17.15625 C 7.378906 -13.800781 6.453125 -10.789062 6.453125 -8.125 C 6.453125 -6.820312 6.726562 -5.828125 7.28125 -5.140625 C 7.84375 -4.453125 8.578125 -4.109375 9.484375 -4.109375 C 11.242188 -4.109375 13.410156 -5.25 15.984375 -7.53125 C 18.566406 -9.8125 21.128906 -12.75 23.671875 -16.34375 C 24.390625 -19.988281 25.238281 -22.609375 26.21875 -24.203125 C 27.195312 -25.804688 28.597656 -26.609375 30.421875 -26.609375 C 31.273438 -26.609375 32.222656 -26.476562 33.265625 -26.21875 C 33.265625 -24.519531 32.546875 -21.128906 31.109375 -16.046875 C 29.679688 -10.960938 27.953125 -5.679688 25.921875 -0.203125 C 29.191406 -1.566406 32.34375 -3.695312 35.375 -6.59375 C 38.40625 -9.5 40.570312 -12.847656 41.875 -16.640625 L 43.640625 -14.875 C 42.203125 -10.757812 39.640625 -7.039062 35.953125 -3.71875 C 32.265625 -0.394531 28.5 2.144531 24.65625 3.90625 C 21.65625 11.15625 18.539062 16.878906 15.3125 21.078125 C 12.082031 25.285156 8.609375 27.390625 4.890625 27.390625 Z M 4.5 22.890625 C 5.800781 22.890625 7.492188 21.679688 9.578125 19.265625 C 11.671875 16.859375 13.828125 13.207031 16.046875 8.3125 C 11.804688 10.40625 8.507812 12.378906 6.15625 14.234375 C 3.8125 16.097656 2.640625 18.070312 2.640625 20.15625 C 2.640625 21 2.816406 21.664062 3.171875 22.15625 C 3.535156 22.644531 3.976562 22.890625 4.5 22.890625 Z M 4.5 22.890625 "/></g></g></g><g fill="#ffffff" fill-opacity="1"><g transform="translate(103.78118, 567.255627)"><g><path d="M 32.96875 1.953125 C 30.488281 1.953125 28.5625 1.332031 27.1875 0.09375 C 25.820312 -1.144531 25.140625 -2.773438 25.140625 -4.796875 C 25.140625 -5.640625 25.285156 -6.613281 25.578125 -7.71875 C 25.878906 -8.832031 26.191406 -9.945312 26.515625 -11.0625 C 27.429688 -14.0625 27.890625 -16.273438 27.890625 -17.703125 C 27.890625 -19.015625 27.5625 -19.976562 26.90625 -20.59375 C 26.25 -21.21875 25.429688 -21.53125 24.453125 -21.53125 C 21.003906 -21.53125 17.515625 -19.359375 13.984375 -15.015625 C 10.460938 -10.679688 6.679688 -5.1875 2.640625 1.46875 C -0.160156 1.46875 -2.28125 0.519531 -3.71875 -1.375 L -2.84375 -3.8125 C 1.007812 -13.144531 2.9375 -20.0625 2.9375 -24.5625 C 3.457031 -25.144531 4.207031 -25.679688 5.1875 -26.171875 C 6.164062 -26.660156 7.109375 -26.90625 8.015625 -26.90625 C 9.128906 -26.90625 9.976562 -26.644531 10.5625 -26.125 C 11.15625 -25.601562 11.453125 -24.882812 11.453125 -23.96875 C 11.453125 -22.207031 10.894531 -19.304688 9.78125 -15.265625 C 12.71875 -19.179688 15.765625 -22.378906 18.921875 -24.859375 C 22.085938 -27.335938 25.207031 -28.578125 28.28125 -28.578125 C 30.882812 -28.578125 32.90625 -27.675781 34.34375 -25.875 C 35.78125 -24.082031 36.5 -21.945312 36.5 -19.46875 C 36.5 -18.03125 36.316406 -16.660156 35.953125 -15.359375 C 35.597656 -14.054688 35.0625 -12.585938 34.34375 -10.953125 C 33.238281 -8.210938 32.6875 -6.160156 32.6875 -4.796875 C 32.6875 -3.816406 32.910156 -3.097656 33.359375 -2.640625 C 33.816406 -2.179688 34.375 -1.953125 35.03125 -1.953125 C 37.175781 -1.953125 39.503906 -3.4375 42.015625 -6.40625 C 44.535156 -9.375 46.804688 -12.878906 48.828125 -16.921875 L 50.484375 -15.5625 C 48.140625 -10.144531 45.546875 -5.867188 42.703125 -2.734375 C 39.867188 0.390625 36.625 1.953125 32.96875 1.953125 Z M 32.96875 1.953125 "/></g></g></g><g fill="#ffffff" fill-opacity="1"><g transform="translate(150.054581, 567.255627)"><g><path d="M 5.484375 4.59375 C 3.203125 4.59375 1.296875 3.84375 -0.234375 2.34375 C -1.773438 0.84375 -2.546875 -1.273438 -2.546875 -4.015625 C -2.546875 -7.796875 -1.160156 -12.035156 1.609375 -16.734375 C 4.378906 -21.429688 7.914062 -25.410156 12.21875 -28.671875 C 16.53125 -31.929688 20.835938 -33.5625 25.140625 -33.5625 C 28.015625 -33.5625 30.410156 -32.828125 32.328125 -31.359375 C 34.253906 -29.890625 35.21875 -28.015625 35.21875 -25.734375 C 35.21875 -22.734375 33.359375 -21.164062 29.640625 -21.03125 C 31.992188 -20.3125 33.171875 -19.332031 33.171875 -18.09375 C 33.171875 -17.644531 32.941406 -16.960938 32.484375 -16.046875 C 32.023438 -15.128906 31.503906 -14.179688 30.921875 -13.203125 C 29.878906 -11.515625 29.0625 -10.03125 28.46875 -8.75 C 27.882812 -7.476562 27.59375 -6.289062 27.59375 -5.1875 C 27.59375 -4.207031 27.835938 -3.375 28.328125 -2.6875 C 28.816406 -2 29.550781 -1.65625 30.53125 -1.65625 C 32.351562 -1.65625 34.679688 -2.925781 37.515625 -5.46875 C 40.359375 -8.019531 43.117188 -11.835938 45.796875 -16.921875 L 47.65625 -15.0625 C 45.238281 -9.65625 42.234375 -5.300781 38.640625 -2 C 35.054688 1.289062 31.4375 2.9375 27.78125 2.9375 C 25.175781 2.9375 23.171875 2.070312 21.765625 0.34375 C 20.367188 -1.382812 19.671875 -3.359375 19.671875 -5.578125 C 16.734375 -2.054688 14.21875 0.515625 12.125 2.140625 C 10.039062 3.773438 7.828125 4.59375 5.484375 4.59375 Z M 7.53125 -0.390625 C 9.8125 -0.390625 12.46875 -2.035156 15.5 -5.328125 C 18.539062 -8.628906 21.984375 -12.921875 25.828125 -18.203125 L 27.78125 -20.84375 C 27.976562 -21.164062 28.242188 -21.328125 28.578125 -21.328125 L 28.96875 -21.234375 C 29.289062 -22.273438 29.453125 -23.484375 29.453125 -24.859375 C 29.453125 -28.242188 28.082031 -29.9375 25.34375 -29.9375 C 22.46875 -29.9375 19.460938 -28.40625 16.328125 -25.34375 C 13.203125 -22.28125 10.578125 -18.625 8.453125 -14.375 C 6.335938 -10.132812 5.28125 -6.515625 5.28125 -3.515625 C 5.28125 -2.410156 5.457031 -1.613281 5.8125 -1.125 C 6.175781 -0.632812 6.75 -0.390625 7.53125 -0.390625 Z M 32.484375 -40.125 C 29.929688 -40.125 27.835938 -40.613281 26.203125 -41.59375 C 24.578125 -42.570312 23.390625 -43.773438 22.640625 -45.203125 C 21.890625 -46.640625 21.515625 -48.046875 21.515625 -49.421875 C 21.515625 -51.566406 22.429688 -53.164062 24.265625 -54.21875 C 24.648438 -52 25.523438 -50.140625 26.890625 -48.640625 C 28.265625 -47.140625 30.191406 -46.390625 32.671875 -46.390625 C 36.523438 -46.390625 39.492188 -47.984375 41.578125 -51.171875 C 42.492188 -50.460938 42.953125 -49.390625 42.953125 -47.953125 C 42.953125 -45.734375 41.90625 -43.875 39.8125 -42.375 C 37.726562 -40.875 35.285156 -40.125 32.484375 -40.125 Z M 32.484375 -40.125 "/></g></g></g><g fill="#ffffff" fill-opacity="1"><g transform="translate(193.490927, 567.255627)"><g><path d="M 51.171875 3.03125 C 48.753906 3.03125 46.894531 2.3125 45.59375 0.875 C 44.289062 -0.550781 43.640625 -2.375 43.640625 -4.59375 C 43.640625 -5.644531 43.785156 -6.804688 44.078125 -8.078125 C 44.367188 -9.347656 44.710938 -10.535156 45.109375 -11.640625 C 45.953125 -14.316406 46.375 -16.273438 46.375 -17.515625 C 46.375 -19.472656 45.625 -20.453125 44.125 -20.453125 C 42.6875 -20.453125 41.019531 -19.40625 39.125 -17.3125 C 37.238281 -15.226562 34.695312 -11.804688 31.5 -7.046875 C 30.71875 -5.867188 29.546875 -3.878906 27.984375 -1.078125 L 26.125 2.25 C 24.945312 2.25 23.671875 2.019531 22.296875 1.5625 C 20.929688 1.101562 20.25 0.484375 20.25 -0.296875 C 20.25 -0.941406 20.9375 -3.03125 22.3125 -6.5625 C 23.613281 -9.945312 24.671875 -12.910156 25.484375 -15.453125 C 26.304688 -18.003906 26.71875 -20.125 26.71875 -21.8125 C 26.71875 -23.769531 26.03125 -24.75 24.65625 -24.75 C 22.894531 -24.75 20.609375 -23.363281 17.796875 -20.59375 C 14.992188 -17.820312 12.222656 -14.300781 9.484375 -10.03125 C 6.742188 -5.757812 4.625 -1.535156 3.125 2.640625 C 1.957031 2.640625 0.578125 2.3125 -1.015625 1.65625 C -2.617188 1.007812 -3.421875 0.457031 -3.421875 0 L 2.84375 -25.046875 C 3.03125 -25.765625 3.726562 -26.398438 4.9375 -26.953125 C 6.144531 -27.503906 7.238281 -27.78125 8.21875 -27.78125 C 9.195312 -27.78125 9.992188 -27.488281 10.609375 -26.90625 C 11.234375 -26.320312 11.546875 -25.539062 11.546875 -24.5625 C 11.546875 -23.519531 11.085938 -21.171875 10.171875 -17.515625 C 13.304688 -21.816406 16.535156 -25.382812 19.859375 -28.21875 C 23.191406 -31.0625 26.320312 -32.484375 29.25 -32.484375 C 31.46875 -32.484375 33.050781 -31.695312 34 -30.125 C 34.945312 -28.5625 35.421875 -26.609375 35.421875 -24.265625 C 35.421875 -23.023438 35.289062 -21.863281 35.03125 -20.78125 C 34.769531 -19.707031 34.34375 -18.257812 33.75 -16.4375 C 38.320312 -23.15625 43.050781 -26.515625 47.9375 -26.515625 C 50.289062 -26.515625 52.003906 -25.8125 53.078125 -24.40625 C 54.148438 -23.007812 54.6875 -21.265625 54.6875 -19.171875 C 54.6875 -17.085938 54.035156 -14.15625 52.734375 -10.375 C 52.671875 -10.113281 52.425781 -9.265625 52 -7.828125 C 51.582031 -6.390625 51.375 -5.21875 51.375 -4.3125 C 51.375 -2.539062 52.1875 -1.65625 53.8125 -1.65625 C 56.164062 -1.65625 58.46875 -3.15625 60.71875 -6.15625 C 62.96875 -9.164062 65.066406 -12.753906 67.015625 -16.921875 L 68.6875 -14.875 C 66.789062 -9.976562 64.359375 -5.769531 61.390625 -2.25 C 58.421875 1.269531 55.015625 3.03125 51.171875 3.03125 Z M 51.171875 3.03125 "/></g></g></g><g fill="#ffffff" fill-opacity="1"><g transform="translate(118.50276, 703.609241)"><g><path d="M 51.171875 3.03125 C 48.753906 3.03125 46.894531 2.3125 45.59375 0.875 C 44.289062 -0.550781 43.640625 -2.375 43.640625 -4.59375 C 43.640625 -5.644531 43.785156 -6.804688 44.078125 -8.078125 C 44.367188 -9.347656 44.710938 -10.535156 45.109375 -11.640625 C 45.953125 -14.316406 46.375 -16.273438 46.375 -17.515625 C 46.375 -19.472656 45.625 -20.453125 44.125 -20.453125 C 42.6875 -20.453125 41.019531 -19.40625 39.125 -17.3125 C 37.238281 -15.226562 34.695312 -11.804688 31.5 -7.046875 C 30.71875 -5.867188 29.546875 -3.878906 27.984375 -1.078125 L 26.125 2.25 C 24.945312 2.25 23.671875 2.019531 22.296875 1.5625 C 20.929688 1.101562 20.25 0.484375 20.25 -0.296875 C 20.25 -0.941406 20.9375 -3.03125 22.3125 -6.5625 C 23.613281 -9.945312 24.671875 -12.910156 25.484375 -15.453125 C 26.304688 -18.003906 26.71875 -20.125 26.71875 -21.8125 C 26.71875 -23.769531 26.03125 -24.75 24.65625 -24.75 C 22.894531 -24.75 20.609375 -23.363281 17.796875 -20.59375 C 14.992188 -17.820312 12.222656 -14.300781 9.484375 -10.03125 C 6.742188 -5.757812 4.625 -1.535156 3.125 2.640625 C 1.957031 2.640625 0.578125 2.3125 -1.015625 1.65625 C -2.617188 1.007812 -3.421875 0.457031 -3.421875 0 L 2.84375 -25.046875 C 3.03125 -25.765625 3.726562 -26.398438 4.9375 -26.953125 C 6.144531 -27.503906 7.238281 -27.78125 8.21875 -27.78125 C 9.195312 -27.78125 9.992188 -27.488281 10.609375 -26.90625 C 11.234375 -26.320312 11.546875 -25.539062 11.546875 -24.5625 C 11.546875 -23.519531 11.085938 -21.171875 10.171875 -17.515625 C 13.304688 -21.816406 16.535156 -25.382812 19.859375 -28.21875 C 23.191406 -31.0625 26.320312 -32.484375 29.25 -32.484375 C 31.46875 -32.484375 33.050781 -31.695312 34 -30.125 C 34.945312 -28.5625 35.421875 -26.609375 35.421875 -24.265625 C 35.421875 -23.023438 35.289062 -21.863281 35.03125 -20.78125 C 34.769531 -19.707031 34.34375 -18.257812 33.75 -16.4375 C 38.320312 -23.15625 43.050781 -26.515625 47.9375 -26.515625 C 50.289062 -26.515625 52.003906 -25.8125 53.078125 -24.40625 C 54.148438 -23.007812 54.6875 -21.265625 54.6875 -19.171875 C 54.6875 -17.085938 54.035156 -14.15625 52.734375 -10.375 C 52.671875 -10.113281 52.425781 -9.265625 52 -7.828125 C 51.582031 -6.390625 51.375 -5.21875 51.375 -4.3125 C 51.375 -2.539062 52.1875 -1.65625 53.8125 -1.65625 C 56.164062 -1.65625 58.46875 -3.15625 60.71875 -6.15625 C 62.96875 -9.164062 65.066406 -12.753906 67.015625 -16.921875 L 68.6875 -14.875 C 66.789062 -9.976562 64.359375 -5.769531 61.390625 -2.25 C 58.421875 1.269531 55.015625 3.03125 51.171875 3.03125 Z M 51.171875 3.03125 "/></g></g></g><g fill="#ffffff" fill-opacity="1"><g transform="translate(183.070304, 703.609241)"><g><path d="M 27.984375 -9.296875 C 29.804688 -9.296875 31.757812 -9.898438 33.84375 -11.109375 C 35.9375 -12.316406 37.535156 -14.160156 38.640625 -16.640625 L 40.40625 -15.359375 C 39.039062 -12.234375 37.195312 -9.851562 34.875 -8.21875 C 32.5625 -6.582031 30.164062 -5.765625 27.6875 -5.765625 C 26.1875 -5.765625 24.554688 -6.0625 22.796875 -6.65625 C 20.378906 -3.78125 17.734375 -1.429688 14.859375 0.390625 C 11.992188 2.210938 9.191406 3.125 6.453125 3.125 C 3.785156 3.125 1.847656 2.242188 0.640625 0.484375 C -0.566406 -1.273438 -1.171875 -3.457031 -1.171875 -6.0625 C -1.171875 -8.800781 -0.601562 -11.640625 0.53125 -14.578125 C 1.675781 -17.515625 3.160156 -19.960938 4.984375 -21.921875 C 6.816406 -23.878906 8.675781 -24.859375 10.5625 -24.859375 C 11.34375 -24.859375 12.351562 -24.59375 13.59375 -24.0625 C 13.988281 -27.070312 15.050781 -29.550781 16.78125 -31.5 C 18.507812 -33.457031 20.9375 -34.4375 24.0625 -34.4375 L 24.453125 -34.4375 C 25.566406 -34.4375 26.546875 -34.242188 27.390625 -33.859375 C 27.910156 -33.660156 28.644531 -33.347656 29.59375 -32.921875 C 30.539062 -32.492188 31.535156 -32.28125 32.578125 -32.28125 C 33.429688 -32.28125 34.117188 -32.507812 34.640625 -32.96875 C 35.160156 -33.425781 35.421875 -34.015625 35.421875 -34.734375 C 35.421875 -36.628906 34.179688 -38.359375 31.703125 -39.921875 C 32.878906 -41.484375 34.410156 -42.265625 36.296875 -42.265625 C 37.796875 -42.265625 39.035156 -41.644531 40.015625 -40.40625 C 40.992188 -39.164062 41.484375 -37.601562 41.484375 -35.71875 C 41.484375 -33.695312 40.847656 -31.984375 39.578125 -30.578125 C 38.304688 -29.171875 36.660156 -28.46875 34.640625 -28.46875 C 33.523438 -28.46875 32.445312 -28.726562 31.40625 -29.25 C 31.601562 -28.40625 31.703125 -27.492188 31.703125 -26.515625 C 31.703125 -24.234375 31.097656 -21.625 29.890625 -18.6875 C 28.679688 -15.75 27.132812 -12.8125 25.25 -9.875 C 26.03125 -9.488281 26.941406 -9.296875 27.984375 -9.296875 Z M 21.921875 -11.9375 C 23.546875 -14.351562 24.894531 -16.863281 25.96875 -19.46875 C 27.050781 -22.082031 27.59375 -24.429688 27.59375 -26.515625 C 27.59375 -29.390625 26.679688 -30.828125 24.859375 -30.828125 C 24.003906 -30.828125 23.117188 -30.398438 22.203125 -29.546875 C 21.296875 -28.703125 20.546875 -27.578125 19.953125 -26.171875 C 19.367188 -24.765625 19.078125 -23.21875 19.078125 -21.53125 C 19.078125 -20.03125 19.335938 -18.316406 19.859375 -16.390625 C 20.378906 -14.460938 21.066406 -12.976562 21.921875 -11.9375 Z M 9.984375 -1.859375 C 11.148438 -1.859375 12.582031 -2.507812 14.28125 -3.8125 C 15.976562 -5.113281 17.675781 -6.78125 19.375 -8.8125 C 15.65625 -12.070312 13.695312 -16.863281 13.5 -23.1875 C 12.71875 -22.800781 11.769531 -21.59375 10.65625 -19.5625 C 9.550781 -17.539062 8.609375 -15.289062 7.828125 -12.8125 C 7.046875 -10.332031 6.65625 -8.179688 6.65625 -6.359375 C 6.65625 -3.359375 7.765625 -1.859375 9.984375 -1.859375 Z M 22.5 -41.484375 C 21.78125 -41.804688 21.207031 -42.3125 20.78125 -43 C 20.363281 -43.6875 20.15625 -44.253906 20.15625 -44.703125 C 20.15625 -45.492188 20.738281 -46.816406 21.90625 -48.671875 C 23.082031 -50.535156 24.453125 -52.21875 26.015625 -53.71875 C 27.585938 -55.21875 28.992188 -55.96875 30.234375 -55.96875 C 31.921875 -55.96875 32.894531 -54.820312 33.15625 -52.53125 C 33.15625 -52.53125 32.632812 -52.007812 31.59375 -50.96875 C 29.769531 -49.269531 28.070312 -47.625 26.5 -46.03125 C 24.9375 -44.4375 23.601562 -42.921875 22.5 -41.484375 Z M 22.5 -41.484375 "/></g></g></g><g fill="#ffffff" fill-opacity="1"><g transform="translate(219.462928, 703.609241)"><g><path d="M 19.375 -41.1875 C 18 -41.1875 16.835938 -41.515625 15.890625 -42.171875 C 14.953125 -42.828125 14.484375 -43.773438 14.484375 -45.015625 C 14.484375 -46.515625 15.3125 -47.832031 16.96875 -48.96875 C 18.632812 -50.113281 20.414062 -50.6875 22.3125 -50.6875 C 25.113281 -50.6875 26.515625 -49.476562 26.515625 -47.0625 C 26.515625 -45.695312 25.765625 -44.375 24.265625 -43.09375 C 22.765625 -41.820312 21.132812 -41.1875 19.375 -41.1875 Z M 7.828125 2.9375 C 5.085938 2.9375 2.96875 2.117188 1.46875 0.484375 C -0.03125 -1.140625 -0.78125 -3.222656 -0.78125 -5.765625 C -0.78125 -8.378906 -0.046875 -11.921875 1.421875 -16.390625 C 2.890625 -20.859375 4.75 -24.785156 7 -28.171875 C 9.25 -31.566406 11.515625 -33.265625 13.796875 -33.265625 C 14.640625 -33.265625 15.335938 -33.019531 15.890625 -32.53125 C 16.453125 -32.039062 16.734375 -31.335938 16.734375 -30.421875 C 16.734375 -29.835938 16.472656 -29.039062 15.953125 -28.03125 C 15.429688 -27.019531 14.582031 -25.566406 13.40625 -23.671875 C 11.320312 -20.222656 9.675781 -17.175781 8.46875 -14.53125 C 7.257812 -11.882812 6.65625 -9.390625 6.65625 -7.046875 C 6.65625 -5.023438 7.015625 -3.65625 7.734375 -2.9375 C 8.453125 -2.21875 9.5625 -1.859375 11.0625 -1.859375 C 16.207031 -1.859375 21.328125 -6.847656 26.421875 -16.828125 L 27.890625 -15.265625 C 25.597656 -9.523438 22.691406 -5.054688 19.171875 -1.859375 C 15.648438 1.335938 11.867188 2.9375 7.828125 2.9375 Z M 7.828125 2.9375 "/></g></g></g></svg>