<?xml version="1.0" encoding="iso-8859-1"?>
<!-- Uploaded to: SVG Repo, www.svgrepo.com, Generator: SVG Repo Mixer Tools -->
<svg height="800px" width="800px" version="1.1" id="Layer_1" xmlns="http://www.w3.org/2000/svg" xmlns:xlink="http://www.w3.org/1999/xlink" 
	 viewBox="0 0 512 512" xml:space="preserve">
<path style="fill:#FF4B4B;" d="M291.31,282.483H220.69c-58.504,0-105.931-47.427-105.931-105.931l0,0
	c0-58.504,47.427-105.931,105.931-105.931h70.621c58.504,0,105.931,47.427,105.931,105.931l0,0
	C397.241,235.057,349.815,282.483,291.31,282.483z"/>
<g>
	<path style="fill:#C83741;" d="M220.69,176.552c0-57.421,32.858-104.056,73.831-105.769c-1.076-0.032-2.126-0.162-3.21-0.162
		H220.69c-58.505,0-105.931,47.427-105.931,105.931s47.427,105.931,105.931,105.931h70.621c1.084,0,2.134-0.13,3.21-0.162
		C253.548,280.608,220.69,233.973,220.69,176.552z"/>
	<path style="fill:#C83741;" d="M256,0c-4.879,0-8.828,3.953-8.828,8.828v35.31h17.655V8.828C264.828,3.953,260.879,0,256,0z"/>
</g>
<path style="fill:#FFCF65;" d="M220.69,379.586c-4.879,0-8.828-3.953-8.828-8.828v-26.483c0-4.875,3.948-8.828,8.828-8.828
	s8.828,3.953,8.828,8.828v26.483C229.517,375.634,225.569,379.586,220.69,379.586z"/>
<circle style="fill:#FFB450;" cx="256" cy="423.724" r="17.655"/>
<g>
	<path style="fill:#FFCF65;" d="M253.035,441.621c-8.681,1.412-14.69,9.564-14.69,18.358v43.193c0,4.875,3.953,8.828,8.828,8.828
		h17.655c4.875,0,8.828-3.953,8.828-8.828v-44.138C273.655,448.311,264.096,439.822,253.035,441.621z"/>
	<path style="fill:#FFCF65;" d="M326.621,176.552c0-38.61-8.032-78.783-23.336-102.47c-1.946-3.014-3.147-6.421-3.147-10.008V44.138
		c0-4.875-3.953-8.828-8.828-8.828H220.69c-4.875,0-8.828,3.953-8.828,8.828v19.936c0,3.587-1.201,6.995-3.147,10.008
		c-15.304,23.687-23.336,63.86-23.336,102.47s8.032,78.783,23.336,102.47c1.946,3.014,3.147,6.421,3.147,10.008v19.936
		c0,4.875,3.953,8.828,8.828,8.828h70.621c4.875,0,8.828-3.953,8.828-8.828V289.03c0-3.587,1.201-6.995,3.147-10.008
		C318.589,255.335,326.621,215.161,326.621,176.552z M240.552,70.621h30.897c17.707,0,37.517,45.302,37.517,105.931
		s-19.81,105.931-37.517,105.931h-30.897c-17.707,0-37.517-45.302-37.517-105.931S222.845,70.621,240.552,70.621z"/>
</g>
<circle style="fill:#FFB450;" cx="220.69" cy="326.621" r="8.828"/>
<path style="fill:#FFCF65;" d="M291.31,379.586c-4.879,0-8.828-3.953-8.828-8.828v-26.483c0-4.875,3.948-8.828,8.828-8.828
	c4.879,0,8.828,3.953,8.828,8.828v26.483C300.138,375.634,296.19,379.586,291.31,379.586z"/>
<circle style="fill:#FFB450;" cx="291.31" cy="326.621" r="8.828"/>
<path style="fill:#FFCF65;" d="M256,406.069c-4.879,0-8.828-3.953-8.828-8.828v-52.966c0-4.875,3.948-8.828,8.828-8.828
	c4.879,0,8.828,3.953,8.828,8.828v52.966C264.828,402.116,260.879,406.069,256,406.069z"/>
<circle style="fill:#FFB450;" cx="256" cy="326.621" r="8.828"/>
</svg>